<?xml version="1.0"?>
<svg xmlns="http://www.w3.org/2000/svg" fill="#000000" viewBox="0 0 64 64" width="64px" height="64px">    <path d="M 32.646484 3 C 32.544484 3 32.442703 3.016875 32.345703 3.046875 C 30.660703 3.575875 29.551844 4.2954687 28.964844 5.2304688 C 28.195844 6.3904688 27.87525 7.8029844 28.03125 9.2089844 C 27.01825 9.1269844 25.976922 9.5156875 25.169922 10.054688 C 23.699922 11.125687 22.599375 12.949578 22.234375 14.892578 C 21.968375 16.046578 21.991609 17.185938 22.099609 18.335938 L 22.083984 18.335938 C 21.929984 18.341938 21.768047 18.348375 21.623047 18.359375 C 20.781047 18.393375 20.171328 18.909172 20.111328 19.576172 C 20.022328 20.128172 20.005281 20.666547 19.988281 21.185547 C 19.969281 21.748547 19.952656 22.279531 19.847656 22.769531 C 19.659656 23.631531 19.577516 24.393609 19.603516 25.099609 C 19.617516 25.514609 19.886531 25.871813 20.269531 26.007812 C 20.093531 27.141813 20.310484 28.195891 20.521484 29.212891 C 20.639484 29.785891 20.752109 30.335281 20.787109 30.863281 C 20.499109 31.107281 20.171344 31.448984 20.027344 31.958984 C 19.845344 32.478984 19.928234 32.944062 19.990234 33.289062 C 20.012234 33.414062 20.040297 33.569531 20.029297 33.644531 C 19.919297 34.479531 20.142984 35.240391 20.333984 35.775391 C 20.367984 35.861391 20.319203 36.126312 20.283203 36.320312 L 20.154297 37.041016 C 19.971297 38.054016 19.784281 39.10125 19.738281 40.15625 C 19.717281 40.47025 19.746484 40.765391 19.771484 41.025391 C 19.799484 41.323391 19.823734 41.58125 19.802734 41.65625 C 19.524734 42.26725 19.151859 42.845984 18.755859 43.458984 C 18.265859 44.216984 17.757438 45.001016 17.398438 45.916016 C 17.241437 46.331016 17.193391 46.73575 17.150391 47.09375 C 17.109391 47.42975 17.073172 47.719594 16.951172 47.933594 C 16.882172 48.062594 16.805469 48.191312 16.730469 48.320312 C 16.353469 48.966313 15.885875 49.768672 15.921875 50.763672 C 15.903875 51.195672 16.024094 51.555656 16.121094 51.847656 C 16.160094 51.964656 16.218703 52.141687 16.220703 52.179688 C 16.211703 52.206688 16.190594 52.2835 16.183594 52.3125 C 15.876594 53.5115 15.571422 54.711391 15.232422 55.900391 C 14.920422 56.977391 14.920563 58.046187 15.226562 58.992188 C 15.308563 59.245188 15.488609 59.456172 15.724609 59.576172 C 16.141609 59.788172 16.558734 59.871312 16.927734 59.945312 L 17.099609 59.978516 C 17.168609 59.992516 17.237641 60 17.306641 60 L 18.871094 59.996094 C 19.245094 59.962094 19.615281 59.908469 19.988281 59.855469 L 20.34375 59.804688 C 20.76075 59.747687 21.096547 59.436391 21.185547 59.025391 C 21.375547 58.140391 21.156734 57.328125 20.927734 56.703125 C 20.720734 55.487125 20.933625 54.211828 21.515625 53.173828 C 21.560625 53.135828 21.641219 53.079063 21.699219 53.039062 C 21.951219 52.864063 22.330875 52.601625 22.546875 52.140625 C 22.731875 51.763625 22.855609 51.39025 22.974609 51.03125 C 23.057609 50.78225 23.140094 50.534016 23.246094 50.291016 C 23.359094 50.029016 23.488234 49.773578 23.615234 49.517578 C 23.910234 48.926578 24.214578 48.315188 24.392578 47.617188 C 24.508578 47.172187 24.479031 46.759734 24.457031 46.427734 C 24.448031 46.299734 24.436406 46.171922 24.441406 46.044922 C 24.523406 45.754922 24.673547 45.386625 24.935547 45.140625 C 25.295547 44.815625 25.534141 44.444187 25.744141 44.117188 C 25.925141 43.835188 26.080953 43.592844 26.251953 43.464844 C 26.943953 42.966844 27.065484 42.220563 27.146484 41.726562 L 27.1875 41.480469 C 27.2575 40.958469 27.449578 40.433125 27.642578 39.953125 C 27.713578 39.780125 27.780656 39.603734 27.847656 39.427734 C 28.059656 38.866734 28.260328 38.336281 28.611328 37.988281 C 28.662328 37.937281 28.711813 37.885031 28.757812 37.832031 C 28.780812 37.854031 28.804125 37.877437 28.828125 37.898438 C 28.899125 37.964438 28.981359 38.0205 29.068359 38.0625 C 29.345359 38.1955 29.620797 38.247063 29.841797 38.289062 C 29.909797 38.302062 30.003406 38.320891 30.066406 38.337891 C 30.405406 38.836891 30.591062 39.234297 30.789062 39.654297 C 30.999063 40.103297 31.237156 40.610375 31.660156 41.234375 C 32.240156 42.259375 33.357531 42.285438 34.019531 42.273438 C 34.039531 42.293438 34.057172 42.310078 34.076172 42.330078 C 34.106172 42.361078 34.137062 42.391922 34.164062 42.419922 C 34.160063 42.449922 34.159203 42.479766 34.158203 42.509766 C 34.154203 42.624766 34.064703 42.813719 33.970703 43.011719 C 33.784703 43.404719 33.532422 43.942062 33.607422 44.539062 C 33.704422 46.610062 33.914328 48.205609 34.236328 49.349609 C 34.298328 49.647609 34.395094 49.936609 34.496094 50.224609 C 34.612094 50.557609 34.71475 50.845422 34.71875 51.107422 C 34.73475 51.784422 34.594172 52.952969 34.451172 53.667969 C 33.997172 54.870969 33.741453 56.043297 33.689453 57.154297 C 33.671453 57.530297 33.869266 57.884312 34.197266 58.070312 C 34.980266 58.513312 35.780781 58.463828 36.425781 58.423828 C 36.816781 58.398828 37.154969 58.376891 37.417969 58.462891 C 38.641969 58.850891 39.665391 58.998375 40.900391 58.984375 C 41.608391 58.971375 42.354141 58.906969 43.119141 58.792969 C 43.604141 58.719969 43.965703 58.3035 43.970703 57.8125 C 43.971703 57.7325 43.982234 57.652312 43.990234 57.570312 C 44.025234 57.230312 44.076406 56.716172 43.816406 56.201172 C 43.778406 56.126172 43.731781 56.055188 43.675781 55.992188 C 43.157781 55.403188 42.488172 55.179953 41.951172 55.001953 C 41.705172 54.919953 41.472828 54.842141 41.298828 54.744141 C 41.082828 54.541141 40.91275 54.282328 40.71875 53.986328 C 40.58575 53.786328 40.450156 53.582141 40.285156 53.369141 C 40.302156 53.312141 40.324797 53.248266 40.341797 53.197266 C 40.428797 52.928266 40.537344 52.595922 40.527344 52.169922 C 40.533344 51.398922 40.537969 50.670016 40.792969 50.041016 C 41.131969 49.149016 41.020281 48.253516 40.863281 47.478516 C 40.786281 47.125516 40.863172 46.712375 40.951172 46.234375 C 41.004172 45.951375 41.055031 45.669578 41.082031 45.392578 C 41.157031 44.662578 41.203094 43.785125 41.246094 42.953125 C 41.267094 42.533125 41.287547 42.124531 41.310547 41.769531 C 41.366547 41.081531 41.192062 40.472547 41.039062 39.935547 L 40.972656 39.714844 C 40.879656 39.158844 40.575516 38.777094 40.353516 38.496094 C 40.264516 38.385094 40.155234 38.246047 40.115234 38.123047 C 39.131234 35.513047 38.219406 33.349781 36.191406 31.175781 C 35.988406 30.981781 35.815516 30.704203 35.728516 30.408203 C 35.763516 30.418203 35.799937 30.428547 35.835938 30.435547 C 36.220937 30.532547 36.620328 30.385219 36.861328 30.074219 C 37.396328 29.380219 37.904094 28.605531 37.996094 27.644531 C 38.035094 27.244531 38.060938 26.842406 38.085938 26.441406 C 38.106938 26.090406 38.127109 25.739891 38.162109 25.337891 C 38.170109 25.131891 38.189984 24.922844 38.208984 24.714844 C 38.262984 24.105844 38.323156 23.420703 38.160156 22.720703 C 38.895156 23.078703 39.672828 23.385625 40.548828 23.515625 C 40.633828 23.528625 40.720594 23.547406 40.808594 23.566406 C 41.202594 23.652406 41.799594 23.787859 42.433594 23.505859 C 42.956594 23.263859 43.371281 22.919234 43.738281 22.615234 C 43.880281 22.497234 44.022734 22.380625 44.177734 22.265625 C 45.143734 21.535625 45.327562 20.463516 45.476562 19.603516 C 45.498562 19.475516 45.519969 19.348516 45.542969 19.228516 C 45.569969 19.218516 45.596047 19.209219 45.623047 19.199219 L 46.003906 19.066406 C 46.482906 18.894406 46.756672 18.389531 46.638672 17.894531 C 46.585672 17.672531 46.524891 17.449562 46.462891 17.226562 C 46.329891 16.749562 46.2025 16.294 46.1875 15.875 C 46.2145 15.861 46.248109 15.845172 46.287109 15.826172 C 46.537109 15.703172 46.915531 15.518078 47.269531 15.080078 C 47.285531 15.064078 47.40775 14.995766 47.71875 15.009766 C 48.31375 15.001766 58.001953 15 58.001953 15 C 58.553953 15 59 14.552 59 14 L 59 12 C 59 11.735 58.895031 11.479969 58.707031 11.292969 C 58.520031 11.104969 58.266 11 58 11 C 58 11 55.702859 10.999953 54.005859 11.001953 C 54.005859 10.984953 54.004906 10.966219 54.003906 10.949219 C 53.984906 10.459219 53.612953 10.056094 53.126953 9.9960938 C 53.064953 9.9880938 52.998641 9.984375 52.931641 9.984375 C 52.936641 9.916375 52.940312 9.8473438 52.945312 9.7773438 C 52.964312 9.5033437 52.979703 9.2335625 52.970703 8.9765625 C 52.952703 8.4425625 52.520328 8.0177656 51.986328 8.0097656 C 51.986328 8.0097656 51.097156 8.0117656 51.035156 8.0097656 C 50.521156 7.9867656 50.032766 8.4188438 50.009766 8.9648438 C 49.993766 9.2948438 49.993094 9.646 49.996094 10 L 41.308594 10.005859 C 41.202594 9.9958594 40.936672 9.8268906 40.763672 9.7128906 C 40.731672 9.5088906 40.694344 9.3055156 40.652344 9.1035156 C 40.573344 8.7185156 40.277531 8.414125 39.894531 8.328125 C 39.567531 8.251125 39.227281 8.3491719 38.988281 8.5761719 C 39.050281 7.6511719 38.812703 6.7678906 38.595703 5.9628906 C 38.539703 5.7578906 38.4865 5.5545156 38.4375 5.3535156 C 38.3805 5.1165156 38.239062 4.9095312 38.039062 4.7695312 C 37.110062 4.1195312 35.788047 3.5673594 34.498047 3.0683594 C 34.383047 3.0233594 34.259719 3 34.136719 3 L 32.646484 3 z M 32.802734 5 L 33.949219 5 C 34.670219 5.28 35.79175 5.7278906 36.59375 6.2128906 L 36.664062 6.4824219 C 36.880063 7.2824219 37.084078 8.0439844 36.955078 8.7089844 C 36.820078 8.7829844 36.653469 8.851875 36.480469 8.921875 C 36.342469 8.978875 36.207219 9.0356563 36.074219 9.0976562 C 35.683219 9.2786562 35.453953 9.6882344 35.501953 10.115234 C 35.548953 10.529234 35.611734 10.941563 35.677734 11.351562 L 35.714844 11.580078 C 35.795844 12.099078 36.269156 12.468875 36.785156 12.421875 C 37.392156 12.370875 37.959938 12.176859 38.460938 12.005859 C 38.794938 11.890859 39.110391 11.781562 39.400391 11.726562 C 39.573391 11.693563 39.730375 11.616812 39.859375 11.507812 C 40.280375 11.771812 40.7965 12.039047 41.4375 11.998047 L 50.074219 11.996094 C 50.198219 11.991094 50.299625 12.026609 50.390625 12.099609 C 50.691625 12.334609 51.096453 12.378844 51.439453 12.214844 C 51.520453 12.175844 51.595109 12.126359 51.662109 12.068359 C 51.697109 12.594359 52.133156 13.003906 52.660156 13.003906 L 47.734375 13.001953 C 46.624375 12.973953 45.988312 13.456844 45.695312 13.839844 C 45.642313 13.904844 45.590297 13.934391 45.404297 14.025391 C 45.144297 14.152391 44.751109 14.346969 44.412109 14.792969 C 44.308109 14.930969 44.239797 15.092672 44.216797 15.263672 C 44.108797 16.070672 44.275031 16.815281 44.457031 17.488281 C 44.421031 17.501281 44.385609 17.515297 44.349609 17.529297 C 44.064609 17.636297 43.842047 17.867203 43.748047 18.158203 C 43.628047 18.530203 43.564906 18.900766 43.503906 19.259766 C 43.380906 19.974766 43.288562 20.424156 42.976562 20.660156 C 42.800562 20.791156 42.630938 20.931266 42.460938 21.072266 C 42.161938 21.320266 41.878953 21.554828 41.626953 21.673828 C 41.560953 21.686828 41.369281 21.640328 41.238281 21.611328 C 41.103281 21.581328 40.968844 21.552203 40.839844 21.533203 C 39.869844 21.389203 38.972484 20.904625 38.021484 20.390625 C 37.598484 20.161625 37.176094 19.933422 36.746094 19.732422 C 36.475094 19.604422 36.161625 19.605375 35.890625 19.734375 C 35.619625 19.863375 35.422562 20.109391 35.351562 20.400391 C 35.271563 20.729391 35.180797 21.054859 35.091797 21.380859 L 35.054688 21.515625 C 34.939687 21.937625 35.111469 22.385094 35.480469 22.621094 C 35.565469 22.675094 35.654141 22.72825 35.744141 22.78125 C 35.897141 22.87125 36.152312 23.023516 36.195312 23.103516 C 36.306312 23.511516 36.262797 24.008203 36.216797 24.533203 C 36.195797 24.775203 36.173969 25.018078 36.167969 25.205078 C 36.134969 25.574078 36.109891 25.943453 36.087891 26.314453 C 36.065891 26.692453 36.041859 27.070219 36.005859 27.449219 C 35.978859 27.727219 35.85325 28.011359 35.65625 28.318359 C 35.62025 28.308359 35.584828 28.298062 35.548828 28.289062 L 35.111328 28.171875 C 34.642328 28.048875 34.156172 28.275891 33.951172 28.712891 C 33.361172 29.963891 33.714578 31.567219 34.767578 32.574219 C 36.509578 34.443219 37.307656 36.345625 38.222656 38.765625 C 38.352656 39.191625 38.593156 39.493328 38.785156 39.736328 C 38.864156 39.836328 38.984578 39.986812 39.017578 40.132812 L 39.115234 40.480469 C 39.232234 40.890469 39.343453 41.277141 39.314453 41.619141 C 39.290453 41.999141 39.268094 42.418609 39.246094 42.849609 C 39.206094 43.645609 39.163797 44.485406 39.091797 45.191406 C 39.069797 45.416406 39.027328 45.640234 38.986328 45.865234 C 38.874328 46.469234 38.74625 47.155719 38.90625 47.886719 C 39.00825 48.389719 39.079688 48.913594 38.929688 49.308594 C 38.538688 50.271594 38.532344 51.271297 38.527344 52.154297 L 38.527344 52.259766 C 38.525344 52.316766 38.472453 52.474125 38.439453 52.578125 C 38.296453 53.014125 38.033766 53.823906 38.634766 54.503906 C 38.790766 54.693906 38.920828 54.891937 39.048828 55.085938 C 39.303828 55.473937 39.592922 55.912688 40.044922 56.304688 C 40.079922 56.334688 40.11725 56.363672 40.15625 56.388672 C 40.54625 56.640672 40.956359 56.777437 41.318359 56.898438 C 41.378359 56.918438 41.437141 56.937031 41.494141 56.957031 C 41.280141 56.971031 41.069281 56.980375 40.863281 56.984375 C 39.859281 56.999375 39.039391 56.879641 38.025391 56.556641 C 37.404391 56.357641 36.815828 56.394734 36.298828 56.427734 C 36.094828 56.440734 35.924578 56.443266 35.767578 56.447266 C 35.870578 55.759266 36.063656 55.042734 36.347656 54.302734 C 36.366656 54.252734 36.381578 54.201391 36.392578 54.150391 C 36.567578 53.321391 36.736797 51.939359 36.716797 51.068359 C 36.707797 50.490359 36.535766 49.9975 36.384766 49.5625 C 36.312766 49.3575 36.238734 49.152 36.177734 48.875 C 35.881734 47.813 35.694609 46.363094 35.599609 44.371094 C 35.586609 44.271094 35.684297 44.063328 35.779297 43.861328 C 35.930297 43.543328 36.116344 43.150062 36.152344 42.664062 C 36.307344 41.751063 35.808813 41.241594 35.507812 40.933594 C 35.431812 40.855594 35.347578 40.771062 35.267578 40.664062 C 35.083578 40.423063 34.801047 40.277531 34.498047 40.269531 C 34.360047 40.266531 34.219266 40.268484 34.072266 40.271484 C 33.865266 40.276484 33.478438 40.284141 33.398438 40.244141 C 33.379438 40.210141 33.359891 40.176531 33.337891 40.144531 C 32.987891 39.635531 32.799609 39.232688 32.599609 38.804688 C 32.385609 38.349688 32.144813 37.832391 31.757812 37.275391 C 31.353813 36.541391 30.639891 36.404219 30.212891 36.324219 C 30.166891 36.315219 30.109594 36.304922 30.058594 36.294922 C 29.930594 36.129922 29.817219 35.902969 29.699219 35.667969 C 29.643219 35.557969 29.588297 35.445891 29.529297 35.337891 C 29.336297 34.978891 28.944156 34.766359 28.535156 34.818359 C 28.128156 34.864359 27.791594 35.154828 27.683594 35.548828 C 27.541594 36.067828 27.394266 36.374266 27.197266 36.572266 C 26.542266 37.221266 26.242563 38.01775 25.976562 38.71875 C 25.916563 38.87775 25.857063 39.036219 25.789062 39.199219 C 25.557063 39.778219 25.304891 40.469203 25.212891 41.158203 L 25.171875 41.400391 C 25.147875 41.546391 25.108359 41.792609 25.068359 41.849609 C 24.591359 42.205609 24.308594 42.646156 24.058594 43.035156 C 23.896594 43.288156 23.757078 43.507969 23.580078 43.667969 C 23.062078 44.153969 22.683469 44.834813 22.480469 45.632812 C 22.467469 45.682812 22.458125 45.733203 22.453125 45.783203 C 22.430125 46.041203 22.442937 46.300594 22.460938 46.558594 C 22.475938 46.775594 22.488125 46.979234 22.453125 47.115234 C 22.326125 47.612234 22.081266 48.103047 21.822266 48.623047 C 21.679266 48.910047 21.537156 49.198281 21.410156 49.488281 C 21.280156 49.785281 21.177219 50.091438 21.074219 50.398438 C 20.970219 50.709437 20.873719 51.002234 20.761719 51.240234 C 20.733719 51.272234 20.627641 51.347484 20.556641 51.396484 C 20.364641 51.530484 20.123016 51.698891 19.916016 51.962891 C 19.888016 51.997891 19.862844 52.033266 19.839844 52.072266 C 18.952844 53.579266 18.645609 55.383391 18.974609 57.150391 C 18.985609 57.209391 19.002438 57.264313 19.023438 57.320312 C 19.113437 57.557313 19.174891 57.762312 19.212891 57.945312 C 19.054891 57.966313 18.90625 57.984047 18.78125 57.998047 L 17.40625 57.998047 L 17.318359 57.980469 C 17.217359 57.959469 17.120344 57.941922 17.027344 57.919922 C 16.965344 57.465922 17.00825 56.958219 17.15625 56.449219 C 17.50125 55.238219 17.810375 54.020891 18.109375 52.837891 C 18.339375 52.176891 18.146578 51.595937 18.017578 51.210938 C 17.976578 51.088938 17.914922 50.902797 17.919922 50.841797 C 17.922922 50.798797 17.922922 50.753937 17.919922 50.710938 C 17.896922 50.287937 18.156031 49.841219 18.457031 49.324219 C 18.543031 49.178219 18.628266 49.032297 18.697266 48.904297 C 19.009266 48.359297 19.078766 47.790031 19.134766 47.332031 C 19.166766 47.063031 19.198625 46.811766 19.265625 46.634766 C 19.547625 45.917766 19.978547 45.248969 20.435547 44.542969 C 20.853547 43.896969 21.285156 43.227625 21.660156 42.390625 C 21.856156 41.816625 21.803719 41.271031 21.761719 40.832031 C 21.743719 40.648031 21.723328 40.466672 21.736328 40.263672 C 21.777328 39.321672 21.945047 38.384531 22.123047 37.394531 L 22.251953 36.683594 C 22.331953 36.249594 22.440078 35.656359 22.205078 35.068359 C 22.033078 34.585359 21.972719 34.215875 22.011719 33.921875 C 22.068719 33.539875 22.008937 33.2045 21.960938 32.9375 C 21.939937 32.8265 21.911016 32.660094 21.916016 32.621094 C 21.932016 32.581094 21.935312 32.565438 21.945312 32.523438 C 21.978313 32.466437 22.136188 32.340812 22.242188 32.257812 L 22.4375 32.097656 C 22.6555 31.914656 22.784969 31.649234 22.792969 31.365234 C 22.821969 30.467234 22.648469 29.623641 22.480469 28.806641 C 22.325469 28.056641 22.176937 27.339063 22.210938 26.664062 C 22.320937 26.606063 22.46275 26.551047 22.59375 26.498047 C 22.69475 26.457047 22.792625 26.416047 22.890625 26.373047 C 23.288625 26.196047 23.527469 25.783562 23.480469 25.351562 C 23.433469 24.919563 23.112547 24.565516 22.685547 24.478516 C 22.333547 24.406516 21.981906 24.335719 21.628906 24.261719 C 21.659906 23.934719 21.717734 23.583359 21.802734 23.193359 C 21.946734 22.524359 21.967281 21.877 21.988281 21.25 C 21.998281 20.941 22.007203 20.644844 22.033203 20.339844 C 22.078203 20.337844 22.123969 20.335984 22.167969 20.333984 C 22.548969 20.317984 22.941547 20.302547 23.435547 20.185547 C 23.930547 20.067547 24.259266 19.596797 24.197266 19.091797 C 24.038266 17.782797 23.916359 16.509828 24.193359 15.298828 C 24.470359 13.825828 25.296453 12.434406 26.314453 11.691406 C 26.972453 11.254406 27.875109 10.999203 28.412109 11.408203 C 28.757109 11.670203 29.230938 11.681547 29.585938 11.435547 L 29.886719 11.234375 C 30.278719 10.978375 30.439391 10.483922 30.275391 10.044922 C 29.798391 8.7759219 29.933484 7.3885 30.646484 6.3125 C 30.865484 5.9635 31.418734 5.456 32.802734 5 z M 41.951172 14 C 41.659172 14.005 41.368078 14.012438 41.080078 14.023438 C 40.641078 14.040438 40.255578 14.392406 40.142578 14.816406 C 40.121578 14.818406 40.097172 14.820266 40.076172 14.822266 C 39.836172 14.842266 39.549859 15.008641 39.380859 15.181641 L 39.283203 15.277344 C 39.054203 15.511344 38.955578 15.843063 39.017578 16.164062 C 39.121578 16.701063 39.456172 17.090953 39.701172 17.376953 C 39.765172 17.449953 39.829766 17.523656 39.884766 17.597656 C 40.062766 17.836656 40.338719 17.983047 40.636719 17.998047 C 40.653719 17.999047 40.6705 18 40.6875 18 C 40.9665 18 41.234828 17.883781 41.423828 17.675781 L 41.544922 17.542969 C 41.868922 17.189969 42.193906 16.834609 42.503906 16.474609 C 42.813906 16.286609 43.018047 15.942406 42.998047 15.566406 L 42.96875 14.947266 C 42.93875 14.409266 42.453172 13.997 41.951172 14 z M 6 25 C 4.895 25 4 25.895 4 27 L 4 35 C 4 36.105 4.895 37 6 37 L 13 37 C 14.105 37 15 36.105 15 35 L 6 35 L 6 27 L 15 27 C 15 25.895 14.105 25 13 25 L 6 25 z M 49 25 C 48 25 47 26 47 27 L 47 30 C 47.055 30.998 48 32 49 32 L 57 32 L 57 35 L 47 35 C 47.134 35.637 47.469578 36.23775 48.017578 36.59375 C 48.497578 36.93975 49.101781 37.017 49.675781 37 L 57 37 C 58 37 59 36 59 35 L 59 32 C 59 31 58.12 30.019 57 30 L 49 30 L 49 27 L 59 27 C 58.869 26.207 58.340469 25.498406 57.605469 25.191406 C 57.112469 24.965406 56.561156 25.001953 56.035156 25.001953 L 49 25 z M 5 39 C 4.447 39 4 39.448 4 40 L 4 42 C 4 42.552 4.447 43 5 43 C 5.553 43 6 42.552 6 42 L 6 40 C 6 39.448 5.553 39 5 39 z M 10 39 C 9.447 39 9 39.448 9 40 L 9 42 C 9 42.552 9.447 43 10 43 C 10.553 43 11 42.552 11 42 L 11 40 C 11 39.448 10.553 39 10 39 z M 15 39 C 14.447 39 14 39.448 14 40 L 14 42 C 14 42.552 14.447 43 15 43 C 15.553 43 16 42.552 16 42 L 16 40 C 16 39.448 15.553 39 15 39 z M 48 39 C 47.447 39 47 39.448 47 40 L 47 42 C 47 42.552 47.447 43 48 43 C 48.553 43 49 42.552 49 42 L 49 40 C 49 39.448 48.553 39 48 39 z M 53 39 C 52.447 39 52 39.448 52 40 L 52 42 C 52 42.552 52.447 43 53 43 C 53.553 43 54 42.552 54 42 L 54 40 C 54 39.448 53.553 39 53 39 z M 58 39 C 57.447 39 57 39.448 57 40 L 57 42 C 57 42.552 57.447 43 58 43 C 58.553 43 59 42.552 59 42 L 59 40 C 59 39.448 58.553 39 58 39 z"/></svg>
